# xmcd
#
# Track frame offsets:
#	150
#	22225
#	40812
#	56625
#	74800
#	90300
#	104237
#	120087
#	134062
#	149725
#	171250
#	193075
#	211862
#	231262
#	250362
#	268675
#
# Disc length: 3831 seconds
#
# Revision: 2
# Processed by: cddbd v1.5.2PL0 Copyright (c) Steve Scherf et al.
# Submitted via: EasyCDDAExtractor 15.2.5.1
#
DISCID=010ef510
DTITLE=十大浪漫心曲 - 卡拉OK酒廊最街點唱
DYEAR=1992
DGENRE=Alternative
TTITLE0=忘情號
TTITLE1=千支針剌在心
TTITLE2=偏偏喜歡你
TTITLE3=不裝飾你夢
TTITLE4=印象
TTITLE5=倩影
TTITLE6=念親恩
TTITLE7=陌上歸 人
TTITLE8=天長地久
TTITLE9=留住我吧
TTITLE10=月半小夜曲
TTITLE11=傷感的戀人
TTITLE12=雨夜的浪漫
TTITLE13=當年情
TTITLE14=讓一切隨風
TTITLE15=沉默是金
EXTD=
EXTT0=
EXTT1=
EXTT2=
EXTT3=
EXTT4=
EXTT5=
EXTT6=
EXTT7=
EXTT8=
EXTT9=
EXTT10=
EXTT11=
EXTT12=
EXTT13=
EXTT14=
EXTT15=
PLAYORDER=
